HIERARCHY
ROOT SimulationBone
{
	OFFSET 0.000000 0.000000 0.000000
	CHANNELS 6 Xposition Yposition Zposition Zrotation Yrotation Xrotation 
	JOINT Hips
	{
		OFFSET 0.000000 0.000000 0.000000
		CHANNELS 6 Xposition Yposition Zposition Zrotation Yrotation Xrotation 
		JOINT LeftUpLeg
		{
			OFFSET 0.103457 1.857840 10.548497
			CHANNELS 3 Zrotation Yrotation Xrotation
			JOINT LeftLeg
			{
				OFFSET 43.499996 -0.000046 -0.000021
				CHANNELS 3 Zrotation Yrotation Xrotation
				JOINT LeftFoot
				{
					OFFSET 42.372200 0.000019 0.000010
					CHANNELS 3 Zrotation Yrotation Xrotation
					JOINT LeftToe
					{
						OFFSET 17.299992 -0.000004 -0.000006
						CHANNELS 3 Zrotation Yrotation Xrotation
						End Site
						{
							OFFSET 0.000000 0.000000 0.000000
						}
					}
				}
			}
		}
		JOINT RightUpLeg
		{
			OFFSET 0.103462 1.857830 -10.548500
			CHANNELS 3 Zrotation Yrotation Xrotation
			JOINT RightLeg
			{
				OFFSET 43.500050 -0.000008 0.000013
				CHANNELS 3 Zrotation Yrotation Xrotation
				JOINT RightFoot
				{
					OFFSET 42.372265 -0.000008 0.000010
					CHANNELS 3 Zrotation Yrotation Xrotation
					JOINT RightToe
					{
						OFFSET 17.299980 -0.000009 0.000011
						CHANNELS 3 Zrotation Yrotation Xrotation
						End Site
						{
							OFFSET 0.000000 0.000000 0.000000
						}
					}
				}
			}
		}
		JOINT Spine
		{
			OFFSET 6.901966 -2.603740 0.000004
			CHANNELS 3 Zrotation Yrotation Xrotation
			JOINT Spine1
			{
				OFFSET 12.588106 0.000010 -0.000001
				CHANNELS 3 Zrotation Yrotation Xrotation
				JOINT Spine2
				{
					OFFSET 12.343197 0.000001 -0.000010
					CHANNELS 3 Zrotation Yrotation Xrotation
					JOINT Neck
					{
						OFFSET 25.832893 -0.000006 0.000008
						CHANNELS 3 Zrotation Yrotation Xrotation
						JOINT Head
						{
							OFFSET 11.766615 -0.000006 -0.000000
							CHANNELS 3 Zrotation Yrotation Xrotation
							End Site
							{
								OFFSET 0.000000 0.000000 0.000000
							}
						}
					}
					JOINT LeftShoulder
					{
						OFFSET 19.745903 -1.480366 6.000110
						CHANNELS 3 Zrotation Yrotation Xrotation
						JOINT LeftArm
						{
							OFFSET 11.284130 -0.000010 -0.000024
							CHANNELS 3 Zrotation Yrotation Xrotation
							JOINT LeftForeArm
							{
								OFFSET 33.000046 0.000022 0.000031
								CHANNELS 3 Zrotation Yrotation Xrotation
								JOINT LeftHand
								{
									OFFSET 25.200022 0.000011 0.000002
									CHANNELS 3 Zrotation Yrotation Xrotation
									End Site
									{
										OFFSET 0.000000 0.000000 0.000000
									}
								}
							}
						}
					}
					JOINT RightShoulder
					{
						OFFSET 19.746103 -1.480371 -6.000066
						CHANNELS 3 Zrotation Yrotation Xrotation
						JOINT RightArm
						{
							OFFSET 11.284146 -0.000005 -0.000007
							CHANNELS 3 Zrotation Yrotation Xrotation
							JOINT RightForeArm
							{
								OFFSET 33.000076 0.000011 0.000008
								CHANNELS 3 Zrotation Yrotation Xrotation
								JOINT RightHand
								{
									OFFSET 25.199783 0.000146 0.000422
									CHANNELS 3 Zrotation Yrotation Xrotation
									End Site
									{
										OFFSET 0.000000 0.000000 0.000000
									}
								}
							}
						}
					}
				}
			}
		}
	}
}
MOTION
Frames: 6
Frame Time: 0.016667
-287.026906 0.000000 -127.033086 0.000000 167.366392 0.000000 -0.560528 89.148987 1.367820 90.048522 4.622668 -179.867322 153.225540 -17.972502 172.138676 -66.921434 0.979176 -9.011408 73.699161 3.571637 -9.272120 21.454539 0.003098 0.000002 171.537387 -5.200393 -174.676487 -25.261304 -0.729737 -4.116719 93.197295 3.672211 6.944728 21.454557 -0.003106 -0.000018 6.219261 1.434743 -0.678057 2.409710 2.882888 -1.327250 2.091269 2.874955 -1.344645 11.674701 -1.699570 -24.963513 -26.897064 4.358263 -28.751895 -155.924938 -81.939115 -25.939893 -13.173869 65.986967 29.762026 -29.164118 -9.420405 0.852735 8.342157 -2.296195 -0.259351 -165.553416 73.519619 16.201723 0.532309 -58.009560 -24.058399 -32.565371 11.500639 -1.081835 8.184418 2.571488 -2.993436 
-287.516890 0.000000 -126.646994 0.000000 166.517680 0.000000 -0.604500 89.098607 1.407145 90.029758 4.770428 -179.700136 152.425290 -18.196551 172.640726 -65.936060 0.764979 -8.988876 74.778822 3.567407 -9.521977 21.454543 0.003095 0.000001 171.650415 -5.043948 -175.104875 -25.288517 -0.677084 -4.340468 93.434964 3.868859 7.405734 21.454557 -0.003108 -0.000018 6.236379 1.490399 -0.679449 2.443365 2.994404 -1.328497 2.124886 2.986465 -1.346565 11.606194 -1.680778 -24.950960 -26.958556 4.281830 -28.704950 -156.426559 -82.026666 -25.430078 -13.673128 66.064590 29.545777 -29.211388 -9.472398 0.853229 8.298078 -2.233494 -0.323950 -165.193873 73.626996 16.570426 0.592884 -58.059673 -24.034386 -32.641520 11.511663 -1.084128 8.149924 2.652771 -2.983848 
-288.036104 0.000000 -126.237537 0.000000 165.636240 0.000000 -0.647688 89.041649 1.449758 90.028525 4.895639 -179.526722 151.756038 -18.356902 173.281571 -64.602558 0.628648 -8.817026 75.878428 3.473885 -9.728414 21.454551 0.003091 -0.000001 171.756117 -4.874801 -175.524387 -25.364389 -0.670181 -4.560727 93.668346 4.046060 7.739015 21.454558 -0.003109 -0.000018 6.256075 1.535120 -0.678427 2.482369 3.084031 -1.325034 2.163853 3.076115 -1.343643 11.575114 -1.576618 -24.936293 -27.092566 4.173725 -28.639795 -156.742347 -82.170644 -25.107532 -14.254572 66.159272 29.401207 -29.207534 -9.547914 0.853934 8.335745 -2.321501 -0.476147 -164.952373 73.703577 16.817987 0.681544 -58.075894 -24.037718 -32.749346 11.538159 -1.088148 8.084275 2.743457 -2.992023 
-288.583842 0.000000 -125.803809 0.000000 164.720558 0.000000 -0.687646 88.978278 1.487218 90.042278 4.983126 -179.354020 151.263759 -18.404420 174.080079 -62.848449 0.610774 -8.353596 77.026927 3.215920 -9.804384 21.454551 0.003090 -0.000001 171.841762 -4.663842 -175.925782 -25.508743 -0.701692 -4.799080 93.885821 4.211939 7.878121 21.454557 -0.003109 -0.000017 6.276227 1.565525 -0.678661 2.522389 3.145063 -1.324335 2.203851 3.137149 -1.343314 11.616166 -1.379668 -24.904148 -27.316152 4.038667 -28.544062 -156.894146 -82.326274 -24.950983 -14.802775 66.257411 29.181725 -29.185254 -9.590037 0.854620 8.391859 -2.444082 -0.654810 -165.038658 73.721038 16.729330 0.839106 -58.009068 -24.085555 -32.885133 11.578949 -1.093759 8.042950 2.829184 -3.010693 
-289.157794 0.000000 -125.347795 0.000000 163.769117 0.000000 -0.721124 88.899918 1.516615 90.064973 5.075947 -179.171167 150.932003 -18.367098 175.073103 -60.712430 0.710163 -7.641629 78.157137 2.762440 -9.946712 21.454550 0.003091 0.000000 171.912241 -4.445802 -176.368844 -25.701882 -0.738470 -5.017743 94.092521 4.352287 7.916223 21.454557 -0.003109 -0.000017 6.296199 1.597863 -0.684759 2.561853 3.210085 -1.335311 2.243302 3.202101 -1.354685 11.696252 -1.203059 -24.839766 -27.572187 3.936673 -28.435525 -156.748385 -82.414379 -25.096908 -15.340375 66.319822 28.905677 -29.149815 -9.594829 0.855351 8.455289 -2.570634 -0.823328 -165.481522 73.739763 16.274561 1.062904 -57.885476 -24.180513 -33.032935 11.639017 -1.100727 8.026817 2.919018 -3.043787 
-289.755769 0.000000 -124.872449 0.000000 162.780530 0.000000 -0.746812 88.802860 1.538060 90.092270 5.213343 -178.971867 150.746362 -18.288849 176.298148 -58.226374 0.898171 -6.718477 79.167626 2.087045 -10.343015 21.454554 0.003092 0.000000 171.982057 -4.255910 -176.917119 -25.903414 -0.750762 -5.178198 94.293746 4.455188 7.975615 21.454557 -0.003108 -0.000017 6.315878 1.646208 -0.697428 2.600364 3.307260 -1.359082 2.281795 3.299128 -1.379046 11.771976 -1.145853 -24.736165 -27.798167 3.917323 -28.333398 -156.237958 -82.383432 -25.614081 -15.908322 66.322604 28.618996 -29.101520 -9.575134 0.856257 8.528543 -2.688858 -0.953395 -166.197027 73.806812 15.539675 1.312899 -57.733449 -24.302557 -33.169371 11.715093 -1.108303 8.021574 3.017677 -3.094197 
